<svg xmlns="http://www.w3.org/2000/svg" xmlns:svg="http://www.w3.org/2000/svg" id="svg3463" width="16" height="16" version="1.1"><metadata id="metadata3468"/><g id="layer1" transform="translate(0,-1036.3622)"><path id="path4014" d="m 2,1037.3622 0,10.5 c 0,1.25 1.125,2.5 2.5,2.5 l 5.5,0 c 0.5,0 1,-0.5 1,-1 l 0,-2 c 0,-1 0,-1 -1,-1 l -2.9999996,0 C 6.5,1046.3622 6,1045.8622 6,1045.3622 l 0,-5 c 0,-0.4451 0.125,-1 0.625,-1 0.3750004,0 2.875,3 3.375,3 l 0.625,0 c 0.5,0 1.875,-1.375 2.375,-1.875 l 1.5,-1.375" style="fill:none;stroke:#00f;stroke-width:1px;stroke-linecap:butt;stroke-linejoin:miter;stroke-opacity:1"/><path id="path4012" d="m 2.5,1037.3622 0,10.375 c 0,1.5 0.75,2.125 2.25,2.125 l 5.25,0 c 0.5,0 0.5,0 0.5,-0.5 l 0,-2.5 1,2.5 0,-1.5 c 0,-2 -1.179607,-2 -1.5,-2 l -2.4999996,0 c -1.0000004,0 -1.0000004,0 -1.0000004,-1 l 0,-4.5 -1,0.5 c 0,-0.9304 0,-2 1,-2 l 0.5000004,0 c 1.375,0 2.2499996,3 3.4999996,3 0.5,0 0.75,-0.125 1.875,-1.125 l 1.875,-1.875 0.75,0 -4,0" style="fill:none;stroke:#4545ff;stroke-width:1px;stroke-linecap:butt;stroke-linejoin:miter;stroke-opacity:1"/><path style="fill:none;stroke:navy;stroke-width:1px;stroke-linecap:butt;stroke-linejoin:miter;stroke-opacity:1" id="path4010" d="m 1.5,1037.3622 0,11 c 0,1.5 1.5,2.5 3,2.5 l 6,0 c 0.5,0 1,-0.5 1,-1 l 0,-1.5 c 0,-1 -0.5,-1.5 -1.5,-1.5 l -2.4999996,0 c -1.0000004,0 -2.0000004,0 -2.0000004,-1 l 0,-5 c 0,-0.4451 0.5,-1 1,-1 1.5000004,0 1.9978526,2.778 3.5,3 l 1,0 c 0.625,0 2,-1.5 2.5,-2 l 1,-1 0,3.5"/><path id="path3288" d="m 1.5,1037.3622 0,11 c 0,1.5 1.5,2.5 3,2.5 l 6,0 c 0.5,0 1,-0.5 1,-1 l 0,-1.5 c 0,-1 -0.5,-1.5 -1.5,-1.5 l -2.4999996,0 c -1.0000004,0 -2.0000004,0 -2.0000004,-1 l 0,-5 c 0,-0.4451 0.5,-1 1,-1 1.5000004,0 1.9978526,2.778 3.5,3 l 1,0 c 0.625,0 2,-1.5 2.5,-2 l 1,-1 0,3.5" style="fill:none;stroke:navy;stroke-width:1px;stroke-linecap:butt;stroke-linejoin:miter;stroke-opacity:1"/></g></svg>