<svg xmlns="http://www.w3.org/2000/svg" xmlns:svg="http://www.w3.org/2000/svg" xmlns:xlink="http://www.w3.org/1999/xlink" id="svg3463" width="16" height="16" version="1.1"><defs id="defs3465"><linearGradient id="linearGradient4410"><stop style="stop-color:#fff;stop-opacity:1" id="stop4412" offset="0"/><stop style="stop-color:#ccc;stop-opacity:1" id="stop4414" offset="1"/></linearGradient><linearGradient id="linearGradient3170" x1="18" x2="30" y1="1050.862" y2="1050.862" gradientTransform="translate(0,-15.999983)" gradientUnits="userSpaceOnUse" xlink:href="#linearGradient3814"/><linearGradient id="linearGradient3814"><stop style="stop-color:#00f;stop-opacity:1" id="stop3816" offset="0"/><stop style="stop-color:#e9e9ff;stop-opacity:1" id="stop3818" offset="1"/></linearGradient><linearGradient id="linearGradient3174" x1="21" x2="27" y1="1044.862" y2="1044.862" gradientTransform="translate(-16,4e-7)" gradientUnits="userSpaceOnUse" xlink:href="#linearGradient3803"/><linearGradient id="linearGradient3803"><stop style="stop-color:#a9e0ff;stop-opacity:1" id="stop3805" offset="0"/><stop style="stop-color:#6b9dff;stop-opacity:0" id="stop3807" offset="1"/></linearGradient><linearGradient id="linearGradient3172" x1="18" x2="30" y1="1038.862" y2="1038.862" gradientTransform="translate(-16,4e-7)" gradientUnits="userSpaceOnUse" xlink:href="#linearGradient3814"/><linearGradient id="linearGradient3552"><stop style="stop-color:#00f;stop-opacity:1" id="stop3554" offset="0"/><stop style="stop-color:#e9e9ff;stop-opacity:1" id="stop3556" offset="1"/></linearGradient><linearGradient id="linearGradient3561" x1="18" x2="30" y1="1050.862" y2="1050.862" gradientTransform="translate(-16,4e-7)" gradientUnits="userSpaceOnUse" xlink:href="#linearGradient3814"/><linearGradient id="linearGradient4416" x1="11.5" x2="4" y1="3.5" y2="12" gradientUnits="userSpaceOnUse" xlink:href="#linearGradient4410"/></defs><metadata id="metadata3468"/><g id="layer1" transform="translate(0,-1036.3622)"><path style="fill:url(#linearGradient4416);fill-opacity:1;stroke:#000;stroke-width:.5;stroke-linecap:round;stroke-linejoin:round;stroke-miterlimit:4;stroke-opacity:1;stroke-dasharray:none;stroke-dashoffset:0" id="path3638" d="M 15.25,8 A 7.25,7.25 0 1 1 0.75,8 7.25,7.25 0 1 1 15.25,8 z" transform="translate(0,1036.3622)"/><path id="path4408" d="M 16.3055,8 A 8.3055,8.3055 0 1 1 -0.30550003,8 8.3055,8.3055 0 1 1 16.3055,8 z" transform="matrix(0.69230769,0,0,0.69230769,2.4615385,1038.8237)" style="fill:#fff;fill-opacity:1;stroke:#000;stroke-width:.72222221;stroke-linecap:round;stroke-linejoin:round;stroke-miterlimit:4;stroke-opacity:1;stroke-dasharray:none;stroke-dashoffset:0"/><path style="fill:none;stroke:#000;stroke-width:1;stroke-linecap:round;stroke-linejoin:miter;stroke-miterlimit:4;stroke-opacity:1;stroke-dasharray:none" id="path4418" d="m 8,1040.3622 0,4 2,1"/><path style="fill:none;stroke:#000;stroke-width:.5;stroke-linecap:butt;stroke-linejoin:round;stroke-miterlimit:4;stroke-opacity:1;stroke-dasharray:.5,1;stroke-dashoffset:0" id="path4420" d="M 13,8 A 5,4.75 0 1 1 3,8 5,4.75 0 1 1 13,8 z" transform="translate(0,1036.3622)"/></g></svg>