<svg xmlns="http://www.w3.org/2000/svg" xmlns:svg="http://www.w3.org/2000/svg" xmlns:xlink="http://www.w3.org/1999/xlink" id="svg4316" width="272" height="272" version="1.0" style="enable-background:new"><defs id="defs4318"><linearGradient id="linearGradient4200"><stop id="stop4202" offset="0" style="stop-color:#113862;stop-opacity:.92156863"/><stop style="stop-color:#154476;stop-opacity:.92156863" id="stop4204" offset=".359"/><stop id="stop4206" offset=".485" style="stop-color:#164476;stop-opacity:.79607844"/><stop id="stop4208" offset=".666" style="stop-color:#33629d;stop-opacity:.68235296"/><stop id="stop4210" offset=".761" style="stop-color:#2b5a93;stop-opacity:.32156864"/><stop id="stop4212" offset=".855" style="stop-color:#80a0c7;stop-opacity:.30208334"/><stop style="stop-color:#bff;stop-opacity:.38431373" id="stop4214" offset=".917"/><stop id="stop4216" offset=".959" style="stop-color:#c4ffff;stop-opacity:.77254903"/><stop id="stop4218" offset="1" style="stop-color:#fff;stop-opacity:1"/></linearGradient><linearGradient id="linearGradient4162"><stop id="stop4164" offset="0" style="stop-color:#0f2f52;stop-opacity:.92156863"/><stop style="stop-color:#0f2f52;stop-opacity:.92156863" id="stop4166" offset=".167"/><stop id="stop4168" offset=".364" style="stop-color:#164476;stop-opacity:.79607844"/><stop id="stop4170" offset=".591" style="stop-color:#33629d;stop-opacity:.68235296"/><stop id="stop4172" offset=".722" style="stop-color:#2b5a93;stop-opacity:.32156864"/><stop id="stop4174" offset=".855" style="stop-color:#80a0c7;stop-opacity:.30208334"/><stop style="stop-color:#fff;stop-opacity:.38431373" id="stop4176" offset=".929"/><stop id="stop4178" offset=".97" style="stop-color:#fff;stop-opacity:.66071427"/><stop id="stop4180" offset="1" style="stop-color:#fff;stop-opacity:1"/></linearGradient><linearGradient id="linearGradient4037"><stop style="stop-color:#316fbc;stop-opacity:1" id="stop4039" offset="0"/><stop id="stop4049" offset=".753" style="stop-color:#316fbc;stop-opacity:1"/><stop style="stop-color:#2a5fa0;stop-opacity:1" id="stop4041" offset="1"/></linearGradient><linearGradient id="linearGradient4027"><stop style="stop-color:#fffefe;stop-opacity:1" id="stop4029" offset="0"/><stop id="stop4190" offset=".341" style="stop-color:#e8f3ff;stop-opacity:1"/><stop style="stop-color:#78b5ff;stop-opacity:1" id="stop4196" offset=".561"/><stop id="stop4035" offset=".601" style="stop-color:#6dafff;stop-opacity:1"/><stop style="stop-color:#6dafff;stop-opacity:1" id="stop4031" offset="1"/></linearGradient><linearGradient id="linearGradient4175"><stop style="stop-color:#154476;stop-opacity:.92156863" id="stop4177" offset="0"/><stop id="stop4203" offset=".374" style="stop-color:#154476;stop-opacity:.92156863"/><stop style="stop-color:#164476;stop-opacity:.79607844" id="stop3211" offset=".485"/><stop style="stop-color:#33629d;stop-opacity:.68235296" id="stop3209" offset=".666"/><stop style="stop-color:#2b5a93;stop-opacity:.32156864" id="stop3205" offset=".761"/><stop style="stop-color:#80a0c7;stop-opacity:.30208334" id="stop3276" offset=".855"/><stop id="stop4217" offset=".929" style="stop-color:#bff;stop-opacity:.38431373"/><stop style="stop-color:#c4ffff;stop-opacity:.77254903" id="stop3201" offset=".97"/><stop style="stop-color:#fff;stop-opacity:1" id="stop4179" offset="1"/></linearGradient><radialGradient id="radialGradient4205" cx="130" cy="126" r="130" fx="130" fy="126" gradientTransform="matrix(1,0,0,0.9615385,0,4.8461538)" gradientUnits="userSpaceOnUse" xlink:href="#linearGradient4175"/><linearGradient id="linearGradient4185"><stop style="stop-color:#f4f8fc;stop-opacity:1" id="stop4187" offset="0"/><stop style="stop-color:#f4f8fc;stop-opacity:0" id="stop4189" offset="1"/></linearGradient><linearGradient id="linearGradient4191" x1="9.997" x2="38.357" y1="31.994" y2="31.994" gradientUnits="userSpaceOnUse" xlink:href="#linearGradient4185"/><radialGradient id="radialGradient4373" cx="130" cy="126" r="130" fx="130" fy="126" gradientTransform="matrix(1,0,0,0.9615385,0,4.8461538)" gradientUnits="userSpaceOnUse" xlink:href="#linearGradient4175"/><radialGradient id="radialGradient4033" cx="130" cy="195.07" r="130" fx="130" fy="195.07" gradientTransform="matrix(2.4414197,0,0,1.2318284,-187.3844,-47.879186)" gradientUnits="userSpaceOnUse" xlink:href="#linearGradient4027"/><radialGradient id="radialGradient4043" cx="127" cy="282.369" r="119.351" fx="127" fy="282.369" gradientTransform="matrix(1.6409802,0,0,0.84837113,-81.404481,-0.55338339)" gradientUnits="userSpaceOnUse" xlink:href="#linearGradient4037"/><radialGradient id="radialGradient4043-7" cx="127" cy="282.369" r="119.351" fx="127" fy="282.369" gradientTransform="matrix(1.6409802,0,0,0.84837113,-81.404481,-0.55338339)" gradientUnits="userSpaceOnUse" xlink:href="#linearGradient4037-8"/><linearGradient id="linearGradient4037-8"><stop style="stop-color:#316fbc;stop-opacity:1" id="stop4039-2" offset="0"/><stop id="stop4049-4" offset=".753" style="stop-color:#316fbc;stop-opacity:1"/><stop style="stop-color:#2a5fa0;stop-opacity:1" id="stop4041-7" offset="1"/></linearGradient><radialGradient id="radialGradient4089" cx="127" cy="282.369" r="119.351" fx="127" fy="282.369" gradientTransform="matrix(1.6409802,0,0,0.84837113,-81.404364,-0.5533782)" gradientUnits="userSpaceOnUse" xlink:href="#linearGradient4037-8"/><radialGradient id="radialGradient4146" cx="130" cy="126" r="130" fx="130" fy="126" gradientTransform="matrix(0.984615,0,0,0.98472956,1e-4,3.9240805)" gradientUnits="userSpaceOnUse" xlink:href="#linearGradient4175"/><radialGradient id="radialGradient4153" cx="130" cy="126" r="130" fx="130" fy="126" gradientTransform="matrix(0.984615,0,0,0.98472956,1e-4,3.9240805)" gradientUnits="userSpaceOnUse" xlink:href="#linearGradient4175"/><radialGradient id="radialGradient4182" cx="130" cy="126" r="130" fx="130" fy="126" gradientTransform="matrix(0.984615,0,0,0.98472956,1e-4,3.9240805)" gradientUnits="userSpaceOnUse" xlink:href="#linearGradient4162"/><radialGradient id="radialGradient4198" cx="130" cy="126" r="130" fx="130" fy="126" gradientTransform="matrix(0.984615,0,0,0.98472956,1e-4,3.9240805)" gradientUnits="userSpaceOnUse" xlink:href="#linearGradient4200"/><filter id="filter3839" color-interpolation-filters="sRGB"><feGaussianBlur id="feGaussianBlur3841" stdDeviation="5.12"/></filter><radialGradient id="radialGradient3845" cx="130" cy="195.07" r="130" fx="130" fy="195.07" gradientTransform="matrix(2.4414197,0,0,1.2318284,-187.3844,-47.879186)" gradientUnits="userSpaceOnUse" xlink:href="#linearGradient4027"/><radialGradient id="radialGradient3847" cx="130" cy="126" r="130" fx="130" fy="126" gradientTransform="matrix(0.984615,0,0,0.98472956,1e-4,3.9240805)" gradientUnits="userSpaceOnUse" xlink:href="#linearGradient4200"/></defs><metadata id="metadata4321"/><g id="layer2"><path style="fill:#646464;fill-opacity:1;stroke:none;filter:url(#filter3839)" id="path3057" d="m 256,128 a 128,128 0 1 1 -256,0 128,128 0 1 1 256,0 z" transform="translate(8,8)"/></g><g id="layer1" style="display:inline"><path style="fill:url(#radialGradient3845);fill-opacity:1;fill-rule:evenodd;stroke:none;stroke-width:.99977899;marker:none;visibility:visible;display:inline;overflow:visible;enable-background:accumulate" id="path4082" d="m 260,126 a 130,125 0 1 1 -260,0 130,125 0 1 1 260,0 z" transform="matrix(0.984615,0,0,1.0241187,1.606e-4,-1.0537917)"/></g><g id="layer5" style="display:inline"><path style="fill:url(#radialGradient4043);fill-opacity:1;fill-rule:evenodd;stroke:none;display:inline" id="path4084" d="M 128,140 C 8,140 4,154.07715 10.5625,178.90625 c 0.01691,0.0389 0.0143,0.0861 0.03125,0.125 C 30.311044,224.3243 75.453433,256 128,256 c 52.54657,0 97.68896,-31.6757 117.40625,-76.96875 0.0107,-0.0403 0.0206,-0.0847 0.0312,-0.125 C 252,154.07715 248,140 128,140 z"/></g><g id="layer3" style="display:inline"><path style="fill:url(#radialGradient3847);fill-opacity:1;fill-rule:evenodd;stroke:none;stroke-width:.99977899;marker:none;visibility:visible;display:inline;overflow:visible;enable-background:accumulate" id="path4164" d="M 128,0 C 57.30758,0 0,57.299357 0,128 c 0,18.13779 3.7920128,35.3972 10.59375,51.03125 -0.0169,-0.0389 -0.01435,-0.0861 -0.03125,-0.125 C 4,154.07715 8.000011,140 128,140 c 120,0 124.00005,14.07715 117.4375,38.90625 -0.0106,0.0403 -0.0205,0.0847 -0.0312,0.125 C 252.20799,163.3972 256,146.13779 256,128 256,57.299357 198.69242,0 128,0 z m 117.40625,179.03125 c -0.61617,1.41541 -1.27223,2.83049 -1.9375,4.21875 0.66923,-1.39649 1.31799,-2.79477 1.9375,-4.21875 z m -1.9375,4.21875 c -0.66527,1.38826 -1.34922,2.76499 -2.0625,4.125 0.71338,-1.36012 1.39715,-2.7366 2.0625,-4.125 z m -2.0625,4.125 c -0.65239,1.2439 -1.30833,2.46811 -2,3.6875 0.68897,-1.21489 1.35003,-2.44827 2,-3.6875 z m -230.8125,-8.34375 c 0.619514,1.42398 1.268273,2.82226 1.9375,4.21875 -0.665275,-1.38826 -1.321333,-2.80334 -1.9375,-4.21875 z m 1.9375,4.21875 c 0.665348,1.3884 1.349118,2.76488 2.0625,4.125 -0.713284,-1.36001 -1.397225,-2.73674 -2.0625,-4.125 z m 2.0625,4.125 c 0.649972,1.23923 1.311027,2.47261 2,3.6875 -0.691669,-1.21939 -1.347611,-2.4436 -2,-3.6875 z m 2.375,4.34375 c 0.705545,1.22715 1.442885,2.42389 2.1875,3.625 -0.742122,-1.19716 -1.484176,-2.40199 -2.1875,-3.625 z m 2.1875,3.625 c 0.802744,1.29487 1.621645,2.58018 2.46875,3.84375 -0.85071,-1.26865 -1.662749,-2.54355 -2.46875,-3.84375 z m 219.875,-3.625 c -0.70332,1.22301 -1.44538,2.42784 -2.1875,3.625 0.74462,-1.20111 1.48196,-2.39785 2.1875,-3.625 z m -2.1875,3.625 c -0.806,1.3002 -1.61804,2.5751 -2.46875,3.84375 0.84711,-1.26357 1.66601,-2.54888 2.46875,-3.84375 z M 24.5,203.3125 c 0.814302,1.11741 1.650808,2.22287 2.5,3.3125 -0.849801,-1.09055 -1.685135,-2.19413 -2.5,-3.3125 z m 207,0 c -0.81486,1.11837 -1.6502,2.22195 -2.5,3.3125 0.84919,-1.08963 1.6857,-2.19509 2.5,-3.3125 z m -204.1875,3.71875 c 1.78066,2.26614 3.635907,4.45452 5.5625,6.59375 -1.922491,-2.1355 -3.785354,-4.33186 -5.5625,-6.59375 z m 5.5625,6.59375 c 1.010289,1.12179 2.044892,2.22716 3.09375,3.3125 -1.057755,-1.09433 -2.075205,-2.1811 -3.09375,-3.3125 z m 3.09375,3.3125 c 1.065029,1.10207 2.146319,2.18664 3.25,3.25 -1.095864,-1.05616 -2.192245,-2.15567 -3.25,-3.25 z m 3.25,3.25 c 2.186521,2.10665 4.449605,4.1456 6.78125,6.09375 -2.337565,-1.95304 -4.589522,-3.98142 -6.78125,-6.09375 z M 228.6875,207.03125 c -1.77714,2.26189 -3.64001,4.45825 -5.5625,6.59375 1.92659,-2.13923 3.78184,-4.32761 5.5625,-6.59375 z m -5.5625,6.59375 c -1.01854,1.1314 -2.036,2.21817 -3.09375,3.3125 1.04886,-1.08534 2.08346,-2.19071 3.09375,-3.3125 z m -3.09375,3.3125 c -1.05775,1.09433 -2.15414,2.19384 -3.25,3.25 1.10368,-1.06336 2.18497,-2.14793 3.25,-3.25 z m -3.25,3.25 c -2.19173,2.11233 -4.44369,4.14071 -6.78125,6.09375 2.33165,-1.94815 4.59473,-3.9871 6.78125,-6.09375 z m -170.1875,6.59375 c 0.979687,0.8086 1.964915,1.59531 2.96875,2.375 -0.999554,-0.77653 -1.99314,-1.5698 -2.96875,-2.375 z m 2.96875,2.375 c 3.611066,2.80477 7.376693,5.40085 11.28125,7.8125 -3.904264,-2.41201 -7.670473,-5.00737 -11.28125,-7.8125 z m 11.28125,7.8125 c 2.60692,1.61017 5.273299,3.13862 8,4.5625 -2.722283,-1.42226 -5.397157,-2.9545 -8,-4.5625 z m 8,4.5625 c 2.7119,1.41615 5.490843,2.7456 8.3125,3.96875 -2.832923,-1.2277 -5.590217,-2.54649 -8.3125,-3.96875 z m 8.3125,3.96875 c 1.297016,0.56224 2.587385,1.10488 3.90625,1.625 -1.305793,-0.5153 -2.621885,-1.0684 -3.90625,-1.625 z m 132.25,-18.71875 c -0.97561,0.8052 -1.9692,1.59847 -2.96875,2.375 1.00383,-0.77969 1.98906,-1.5664 2.96875,-2.375 z m -2.96875,2.375 c -3.61078,2.80513 -7.37699,5.40049 -11.28125,7.8125 3.90456,-2.41165 7.67018,-5.00773 11.28125,-7.8125 z m -11.28125,7.8125 c -2.60284,1.608 -5.27772,3.14024 -8,4.5625 2.7267,-1.42388 5.39308,-2.95233 8,-4.5625 z m -8,4.5625 c -2.72228,1.42226 -5.47958,2.74105 -8.3125,3.96875 2.82166,-1.22315 5.6006,-2.5526 8.3125,-3.96875 z m -8.3125,3.96875 c -1.28437,0.5566 -2.60046,1.1097 -3.90625,1.625 1.31886,-0.52012 2.60923,-1.06276 3.90625,-1.625 z M 81.5,247.28125 c 1.424915,0.55597 2.8633,1.0879 4.3125,1.59375 -1.458078,-0.50891 -2.879014,-1.03409 -4.3125,-1.59375 z m 4.3125,1.59375 c 1.366299,0.47691 2.73803,0.94356 4.125,1.375 -1.385638,-0.43103 -2.759999,-0.89857 -4.125,-1.375 z M 174.5,247.28125 c -1.43349,0.55966 -2.85442,1.08484 -4.3125,1.59375 1.4492,-0.50585 2.88759,-1.03778 4.3125,-1.59375 z m -4.3125,1.59375 c -1.365,0.47643 -2.73936,0.94397 -4.125,1.375 1.38697,-0.43144 2.7587,-0.89809 4.125,-1.375 z m -79.90625,1.46875 c 1.489722,0.45885 2.987631,0.90713 4.5,1.3125 -1.504271,-0.40348 -3.018148,-0.8561 -4.5,-1.3125 z m 4.5,1.3125 c 2.823547,0.75682 5.69675,1.40381 8.59375,1.96875 -2.90743,-0.56669 -5.760337,-1.20877 -8.59375,-1.96875 z m 70.9375,-1.3125 c -1.48185,0.4564 -2.99573,0.90902 -4.5,1.3125 1.51237,-0.40537 3.01028,-0.85365 4.5,-1.3125 z m -4.5,1.3125 c -2.83341,0.75998 -5.68632,1.40206 -8.59375,1.96875 2.897,-0.56494 5.7702,-1.21193 8.59375,-1.96875 z m -52.28125,2.9375 c 1.48144,0.22115 2.97118,0.42383 4.46875,0.59375 -1.49952,-0.17033 -2.98542,-0.37204 -4.46875,-0.59375 z m 38.125,0 c -1.48333,0.22171 -2.96923,0.42342 -4.46875,0.59375 1.49757,-0.16992 2.98731,-0.3726 4.46875,-0.59375 z m -33.59375,0.59375 c 3.17472,0.35866 6.38427,0.59673 9.625,0.71875 -3.24366,-0.12224 -6.44754,-0.35939 -9.625,-0.71875 z m 9.625,0.71875 C 124.71987,255.96748 126.3589,256 128,256 c -1.64208,0 -3.27918,-0.0324 -4.90625,-0.0937 z M 128,256 c 1.6411,0 3.28013,-0.0325 4.90625,-0.0937 C 131.27918,255.96757 129.64208,256 128,256 z m 4.90625,-0.0937 c 3.24073,-0.12202 6.45028,-0.36009 9.625,-0.71875 -3.17746,0.35936 -6.38134,0.59651 -9.625,0.71875 z"/><path style="fill:url(#radialGradient4182);fill-opacity:1;fill-rule:evenodd;stroke:none;stroke-width:.99977899;marker:none;visibility:visible;display:inline;overflow:visible;enable-background:accumulate" id="path4123" d="M 128,140 C 8.000011,140 4,154.07715 10.5625,178.90625 c 0.0169,0.0389 0.01435,0.0861 0.03125,0.125 0.616167,1.41541 1.272225,2.83049 1.9375,4.21875 0.665275,1.38826 1.349216,2.76499 2.0625,4.125 0.652389,1.2439 1.308331,2.46811 2,3.6875 0.11744,0.20704 0.225192,0.41868 0.34375,0.625 0.0071,0.0123 0.02417,0.0189 0.03125,0.0312 0.703324,1.22301 1.445378,2.42784 2.1875,3.625 0.806001,1.3002 1.61804,2.5751 2.46875,3.84375 0.784281,1.16986 1.584841,2.32663 2.40625,3.46875 0.15656,0.21772 0.31086,0.43955 0.46875,0.65625 0.814865,1.11837 1.650199,2.22195 2.5,3.3125 0.105036,0.13477 0.206938,0.27191 0.3125,0.40625 1.777146,2.26189 3.640009,4.45825 5.5625,6.59375 1.018545,1.1314 2.035995,2.21817 3.09375,3.3125 1.057755,1.09433 2.154136,2.19384 3.25,3.25 2.191728,2.11233 4.443685,4.14071 6.78125,6.09375 0.19782,0.16528 0.39492,0.33589 0.59375,0.5 0.97561,0.8052 1.969196,1.59847 2.96875,2.375 3.610777,2.80513 7.376986,5.40049 11.28125,7.8125 2.602843,1.608 5.277717,3.14024 8,4.5625 2.722283,1.42226 5.479577,2.74105 8.3125,3.96875 1.284365,0.5566 2.600457,1.1097 3.90625,1.625 0.14305,0.0564 0.294199,0.10034 0.4375,0.15625 1.433486,0.55966 2.854422,1.08484 4.3125,1.59375 1.365001,0.47643 2.739362,0.94397 4.125,1.375 0.112812,0.0351 0.230804,0.059 0.34375,0.0937 1.481852,0.4564 2.995729,0.90902 4.5,1.3125 2.833413,0.75998 5.68632,1.40206 8.59375,1.96875 0.40446,0.0788 0.81293,0.14374 1.21875,0.21875 1.30094,0.24053 2.59183,0.48664 3.90625,0.6875 0.14532,0.0222 0.29202,0.0408 0.4375,0.0625 1.48333,0.22171 2.96923,0.42342 4.46875,0.59375 0.0206,0.002 0.0419,-0.002 0.0625,0 3.17746,0.35936 6.38134,0.59651 9.625,0.71875 1.62707,0.0613 3.26417,0.0937 4.90625,0.0937 1.64208,0 3.27918,-0.0324 4.90625,-0.0937 3.24366,-0.12224 6.44754,-0.35939 9.625,-0.71875 0.0103,-0.001 0.021,0.001 0.0312,0 0.0103,-0.001 0.0209,0.001 0.0312,0 1.49952,-0.17033 2.98542,-0.37204 4.46875,-0.59375 0.14547,-0.0217 0.29219,-0.0403 0.4375,-0.0625 1.30438,-0.19957 2.61515,-0.44885 3.90625,-0.6875 0.40811,-0.0755 0.81201,-0.13943 1.21875,-0.21875 2.90743,-0.56669 5.76034,-1.20877 8.59375,-1.96875 1.50427,-0.40348 3.01815,-0.8561 4.5,-1.3125 0.009,-0.003 0.0218,0.003 0.0312,0 0.10404,-0.0321 0.20857,-0.0614 0.3125,-0.0937 1.38564,-0.43103 2.76,-0.89857 4.125,-1.375 1.45808,-0.50891 2.87901,-1.03409 4.3125,-1.59375 0.009,-0.004 0.0223,0.004 0.0312,0 0.13452,-0.0526 0.27195,-0.10325 0.40625,-0.15625 1.30579,-0.5153 2.62188,-1.0684 3.90625,-1.625 2.83292,-1.2277 5.59022,-2.54649 8.3125,-3.96875 2.72228,-1.42226 5.39716,-2.9545 8,-4.5625 3.90426,-2.41201 7.67047,-5.00737 11.28125,-7.8125 0.99955,-0.77653 1.99314,-1.5698 2.96875,-2.375 0.19915,-0.16437 0.39561,-0.33446 0.59375,-0.5 2.33756,-1.95304 4.58952,-3.98142 6.78125,-6.09375 1.09586,-1.05616 2.19225,-2.15567 3.25,-3.25 1.05775,-1.09433 2.07521,-2.1811 3.09375,-3.3125 1.92249,-2.1355 3.78536,-4.33186 5.5625,-6.59375 0.10594,-0.13483 0.20709,-0.27098 0.3125,-0.40625 0.8498,-1.09055 1.68514,-2.19413 2.5,-3.3125 0.15783,-0.21658 0.31225,-0.43865 0.46875,-0.65625 0.81693,-1.13609 1.62604,-2.30523 2.40625,-3.46875 0.85071,-1.26865 1.66275,-2.54355 2.46875,-3.84375 0.74212,-1.19716 1.48418,-2.40199 2.1875,-3.625 0.007,-0.0124 0.0241,-0.0189 0.0312,-0.0312 0.11839,-0.20608 0.22647,-0.41821 0.34375,-0.625 0.69167,-1.21939 1.34761,-2.4436 2,-3.6875 0.71328,-1.36001 1.39723,-2.73674 2.0625,-4.125 0.66527,-1.38826 1.32133,-2.80334 1.9375,-4.21875 0.0107,-0.0403 0.0206,-0.0847 0.0312,-0.125 C 252.00005,154.07715 248,140 128,140 z"/></g></svg>