<svg xmlns="http://www.w3.org/2000/svg" xmlns:svg="http://www.w3.org/2000/svg" xmlns:xlink="http://www.w3.org/1999/xlink" id="svg3923" width="32" height="32" version="1.1"><metadata id="metadata3928"/><g id="layer1"><use id="use4522" width="32" height="32" x="0" y="0" transform="translate(24,8)" xlink:href="#g4466"/><use id="use4530" width="32" height="32" x="0" y="0" transform="translate(24,12)" xlink:href="#g4466"/><use id="use4532" width="32" height="32" x="0" y="0" transform="translate(24,16)" xlink:href="#g4466"/><use id="use4534" width="32" height="32" x="0" y="0" transform="translate(24,20)" xlink:href="#g4466"/><use id="use4536" width="32" height="32" x="0" y="0" transform="translate(24,24)" xlink:href="#g4466"/><use id="use4520" width="32" height="32" x="0" y="0" transform="translate(20,0)" xlink:href="#g4466"/><use id="use4524" width="32" height="32" x="0" y="0" transform="translate(20,4)" xlink:href="#g4466"/><use id="use4526" width="32" height="32" x="0" y="0" transform="translate(20,8)" xlink:href="#g4466"/><use id="use4528" width="32" height="32" x="0" y="0" transform="translate(20,12)" xlink:href="#g4466"/><use id="use4474" width="32" height="32" x="0" y="0" transform="translate(16,0)" xlink:href="#g4466"/><use id="use4476" width="32" height="32" x="0" y="0" transform="translate(16,4)" xlink:href="#g4466"/><use id="use4478" width="32" height="32" x="0" y="0" transform="translate(16,8)" xlink:href="#g4466"/><use id="use4480" width="32" height="32" x="0" y="0" transform="translate(16,12)" xlink:href="#g4466"/><use id="use4482" width="32" height="32" x="0" y="0" transform="translate(16,16)" xlink:href="#g4466"/><use id="use4484" width="32" height="32" x="0" y="0" transform="translate(16,20)" xlink:href="#g4466"/><use id="use4486" width="32" height="32" x="0" y="0" transform="translate(16,24)" xlink:href="#g4466"/><use id="use4538" width="32" height="32" x="0" y="0" transform="translate(12,20)" xlink:href="#g4466"/><use id="use4490" width="32" height="32" x="0" y="0" transform="translate(12,24)" xlink:href="#g4466"/><use id="use4488" width="32" height="32" x="0" y="0" transform="translate(12,28)" xlink:href="#g4466"/><use id="use4502" width="32" height="32" x="0" y="0" transform="translate(8,20)" xlink:href="#g4466"/><use id="use4500" width="32" height="32" x="0" y="0" transform="translate(8,24)" xlink:href="#g4466"/><use id="use4498" width="32" height="32" x="0" y="0" transform="translate(8,28)" xlink:href="#g4466"/><use id="use4510" width="32" height="32" x="0" y="0" transform="translate(4,20)" xlink:href="#g4466"/><use id="use4508" width="32" height="32" x="0" y="0" transform="translate(4,24)" xlink:href="#g4466"/><use id="use4506" width="32" height="32" x="0" y="0" transform="translate(4,28)" xlink:href="#g4466"/><use id="use4516" width="32" height="32" x="0" y="0" transform="translate(0,24)" xlink:href="#g4466"/><g id="g4540" transform="translate(0,28)"><g id="g4466"><rect style="color:#000;fill:#0ff;fill-opacity:1;fill-rule:nonzero;stroke:navy;stroke-width:1;stroke-linecap:butt;stroke-linejoin:miter;stroke-miterlimit:4;stroke-opacity:1;stroke-dasharray:none;stroke-dashoffset:0;marker:none;visibility:visible;display:inline;overflow:visible;enable-background:accumulate" id="rect3933" width="3" height="3" x=".5" y=".5" ry=".5"/><rect id="rect4464" width="1" height="1" x="1.5" y="1.5" style="color:#000;fill:#00f;fill-opacity:1;fill-rule:nonzero;stroke:#0df;stroke-width:.75;stroke-linecap:butt;stroke-linejoin:round;stroke-miterlimit:4;stroke-opacity:1;stroke-dasharray:none;stroke-dashoffset:0;marker:none;visibility:visible;display:inline;overflow:visible;enable-background:accumulate"/></g></g></g></svg>