<svg xmlns="http://www.w3.org/2000/svg" xmlns:svg="http://www.w3.org/2000/svg" xmlns:xlink="http://www.w3.org/1999/xlink" id="svg2985" width="32" height="32" version="1.1"><defs id="defs2987"><linearGradient id="linearGradient3005"><stop style="stop-color:#ffc9c9;stop-opacity:1" id="stop3007" offset="0"/><stop id="stop3015" offset=".1" style="stop-color:#ff4343;stop-opacity:1"/><stop style="stop-color:#ff1f1f;stop-opacity:1" id="stop3019" offset=".2"/><stop id="stop3013" offset=".35" style="stop-color:#f20000;stop-opacity:1"/><stop style="stop-color:#ab0000;stop-opacity:1" id="stop3017" offset=".75"/><stop style="stop-color:#580000;stop-opacity:1" id="stop3009" offset="1"/></linearGradient><radialGradient id="radialGradient3011" cx="16" cy="16" r="16" fx="9" fy="6" gradientUnits="userSpaceOnUse" xlink:href="#linearGradient3005"/><filter id="filter3813" width="1.289" height="1.205" x="-.145" y="-.103"><feGaussianBlur id="feGaussianBlur3815" stdDeviation=".482"/></filter><clipPath id="clipPath3838" clipPathUnits="userSpaceOnUse"><path style="font-size:medium;font-style:normal;font-variant:normal;font-weight:400;font-stretch:normal;text-indent:0;text-align:start;text-decoration:none;line-height:normal;letter-spacing:normal;word-spacing:normal;text-transform:none;direction:ltr;block-progression:tb;writing-mode:lr-tb;text-anchor:start;baseline-shift:baseline;color:#000;fill:#fff;fill-opacity:1;stroke:none;stroke-width:3;marker:none;visibility:visible;display:inline;overflow:visible;enable-background:accumulate;font-family:Sans;-inkscape-font-specification:Sans" id="path3840" d="M 20.84375,17 A 1.50015,1.50015 0 0 0 19.5,18.5 l 0,5 a 1.50015,1.50015 0 0 0 2.40625,1.1875 c 0.488,-0.366 2.310578,-0.875275 3.625,-0.6875 0.657211,0.09389 1.16962,0.310364 1.46875,0.59375 0.29913,0.283386 0.5,0.614583 0.5,1.40625 0,0.819444 -0.209792,1.247767 -0.5,1.5625 -0.290208,0.314733 -0.745168,0.545402 -1.34375,0.65625 -1.197163,0.221697 -2.887753,-0.210202 -3.71875,-0.875 a 1.50015,1.50015 0 1 0 -1.875,2.3125 c 1.669003,1.335202 3.978413,1.903303 6.15625,1.5 1.088918,-0.201652 2.180833,-0.674108 3,-1.5625 C 30.037917,28.705358 30.5,27.430556 30.5,26 30.5,24.541667 29.95087,23.247864 29.0625,22.40625 28.17413,21.564636 27.061539,21.156113 25.96875,21 24.76149,20.827534 23.587992,20.966919 22.5,21.25 l 0,-1.25 6.5,0 a 1.50015,1.50015 0 1 0 0,-3 l -8,0 a 1.50015,1.50015 0 0 0 -0.15625,0 z"/></clipPath></defs><metadata id="metadata2990"/><g id="layer1"><path style="color:#000;fill:url(#radialGradient3011);fill-opacity:1;fill-rule:nonzero;stroke:#000;stroke-opacity:1;marker:none;visibility:visible;display:inline;overflow:visible;enable-background:accumulate" id="path2995" d="m 31.5,16 a 15.5,15.5 0 1 1 -31,0 15.5,15.5 0 1 1 31,0 z"/><g id="g3842" transform="matrix(0.8660254,-0.5,0.5,0.8660254,-5.8564065,10.143594)" style="fill:#fca;color:#000;fill-opacity:1;fill-rule:nonzero;stroke:#b26a3a;stroke-width:1px;stroke-linecap:butt;stroke-linejoin:miter;stroke-miterlimit:4;stroke-opacity:1;stroke-dasharray:none;stroke-dashoffset:0;marker:none;visibility:visible;display:inline;overflow:visible;enable-background:accumulate"><path id="path3817" d="m 22,14 -16,0 0,4 16,0 0,5 4,0 0,-11 -4,-4 z" style="fill:#fca;stroke:#b26a3a;stroke-width:1px;stroke-linecap:butt;stroke-linejoin:miter;stroke-opacity:1;color:#000;fill-opacity:1;fill-rule:nonzero;stroke-miterlimit:4;stroke-dasharray:none;stroke-dashoffset:0;marker:none;visibility:visible;display:inline;overflow:visible;enable-background:accumulate"/></g><g id="g3827" clip-path="url(#clipPath3838)"><path id="path3021" d="m 29,18.5 -8,0 0,5 c 2,-1.5 8,-2 8,2.5 0,4.5 -5.5,4.5 -8,2.5" style="fill:none;stroke:#00f;stroke-width:3;stroke-linecap:round;stroke-linejoin:round;stroke-opacity:1;stroke-miterlimit:4;stroke-dasharray:none"/><path id="path3819" d="m 30,19.5 -8,0 0,5 c 2,-1.5 8,-2 8,2.5 0,4.5 -5.5,4.5 -8,2.5" style="fill:none;stroke:navy;stroke-width:1.75;stroke-linecap:round;stroke-linejoin:round;stroke-miterlimit:4;stroke-opacity:1;stroke-dasharray:none;filter:url(#filter3813)"/><path style="fill:none;stroke:#16f7ff;stroke-width:1.5;stroke-linecap:round;stroke-linejoin:round;stroke-opacity:1;stroke-miterlimit:4;stroke-dasharray:none;filter:url(#filter3813)" id="path3791" d="m 29,18.5 -8,0 0,5 c 2,-1.5 8,-2 8,2.5 0,4.5 -5.5,4.5 -8,2.5"/></g><path id="path3836" d="M 20.84375,17 A 1.50015,1.50015 0 0 0 19.5,18.5 l 0,5 a 1.50015,1.50015 0 0 0 2.40625,1.1875 c 0.488,-0.366 2.310578,-0.875275 3.625,-0.6875 0.657211,0.09389 1.16962,0.310364 1.46875,0.59375 0.29913,0.283386 0.5,0.614583 0.5,1.40625 0,0.819444 -0.209792,1.247767 -0.5,1.5625 -0.290208,0.314733 -0.745168,0.545402 -1.34375,0.65625 -1.197163,0.221697 -2.887753,-0.210202 -3.71875,-0.875 a 1.50015,1.50015 0 1 0 -1.875,2.3125 c 1.669003,1.335202 3.978413,1.903303 6.15625,1.5 1.088918,-0.201652 2.180833,-0.674108 3,-1.5625 C 30.037917,28.705358 30.5,27.430556 30.5,26 30.5,24.541667 29.95087,23.247864 29.0625,22.40625 28.17413,21.564636 27.061539,21.156113 25.96875,21 24.76149,20.827534 23.587992,20.966919 22.5,21.25 l 0,-1.25 6.5,0 a 1.50015,1.50015 0 1 0 0,-3 l -8,0 a 1.50015,1.50015 0 0 0 -0.15625,0 z" style="font-size:medium;font-style:normal;font-variant:normal;font-weight:400;font-stretch:normal;text-indent:0;text-align:start;text-decoration:none;line-height:normal;letter-spacing:normal;word-spacing:normal;text-transform:none;direction:ltr;block-progression:tb;writing-mode:lr-tb;text-anchor:start;baseline-shift:baseline;color:#000;fill:none;fill-opacity:1;stroke:#000043;stroke-width:.25;marker:none;visibility:visible;display:inline;overflow:visible;enable-background:accumulate;font-family:Sans;-inkscape-font-specification:Sans;stroke-miterlimit:4;stroke-dasharray:none;stroke-opacity:1"/></g></svg>