<svg xmlns="http://www.w3.org/2000/svg" xmlns:svg="http://www.w3.org/2000/svg" id="svg3463" width="16" height="16" version="1.1"><metadata id="metadata3468"/><g id="layer1" transform="translate(0,-1036.3622)"><path style="fill:none;stroke:#00ce31;stroke-width:.5;stroke-linecap:butt;stroke-linejoin:miter;stroke-opacity:1;stroke-miterlimit:4;stroke-dasharray:3,.5;stroke-dashoffset:0" id="path3067" d="m 2,2 0,12 8,0 0,-8 4,0 0,-4" transform="translate(0,1036.3622)"/><rect style="fill:#0f0;fill-opacity:1;fill-rule:nonzero;stroke:none" id="rect2999" width="2" height="2" x="1" y="1037.362"/><path style="fill:#000;fill-opacity:1;fill-rule:nonzero;stroke:#fff;stroke-opacity:1" id="path2989-1" d="m 5.0771988,1036.5907 c 0.2882591,0.46 0.5863147,0.9148 0.9092549,1.3512 0.418731,0.566 0.9221469,1.0597 1.4689149,1.5005 0.2079965,0.1744 0.4418086,0.3197 0.6403283,0.5052 0.08402,0.096 0.134485,0.2109 0.229945,0.2967 0.05146,0.042 0.09665,0.09 0.146727,0.134 0,0 -0.7934854,0.4922 -0.7934854,0.4922 l 0,0 c -0.049133,-0.045 -0.096167,-0.093 -0.1480472,-0.135 -0.093156,-0.088 -0.1459268,-0.2003 -0.2268764,-0.2986 -0.1958707,-0.1805 -0.40306,-0.3485 -0.6052666,-0.5218 -0.5309226,-0.465 -1.0330632,-0.9657 -1.4607817,-1.5288 -0.330336,-0.433 -0.6297586,-0.8883 -0.9617962,-1.3202 0,0 0.8010834,-0.4754 0.8010834,-0.4754 z"/><rect style="fill:#000;fill-opacity:1;fill-rule:nonzero;stroke:none" id="rect2999-7" width="4" height="4" x="4" y="1036.362"/><rect style="fill:#000;fill-opacity:1;fill-rule:nonzero;stroke:none" id="rect3001-4" width="4" height="4" x="4" y="1040.362"/><rect style="fill:#000;fill-opacity:1;fill-rule:nonzero;stroke:none" id="rect3003-0" width="4" height="4" x="4" y="1044.362"/><rect style="fill:#000;fill-opacity:1;fill-rule:nonzero;stroke:none" id="rect2999-2" width="4" height="4" x="8" y="1036.362"/><rect style="fill:red;fill-opacity:1;fill-rule:nonzero;stroke:none" id="rect2999-4" width="2" height="2" x="13" y="1037.362"/><rect style="fill:#000;fill-opacity:1;fill-rule:nonzero;stroke:none" id="rect3003-14" width="4" height="4" x="12" y="1044.362"/><rect style="fill:#000;fill-opacity:1;fill-rule:nonzero;stroke:none;stroke-opacity:1" id="rect3005-3" width="4" height="4" x="12" y="1048.362"/></g></svg>