<svg xmlns="http://www.w3.org/2000/svg" xmlns:svg="http://www.w3.org/2000/svg" xmlns:xlink="http://www.w3.org/1999/xlink" id="svg3463" width="16" height="16" version="1.1"><defs id="defs3465"><linearGradient id="linearGradient3170" x1="18" x2="30" y1="1050.862" y2="1050.862" gradientTransform="translate(0,-15.999983)" gradientUnits="userSpaceOnUse" xlink:href="#linearGradient3814"/><linearGradient id="linearGradient3814"><stop style="stop-color:#00f;stop-opacity:1" id="stop3816" offset="0"/><stop style="stop-color:#e9e9ff;stop-opacity:1" id="stop3818" offset="1"/></linearGradient><linearGradient id="linearGradient3174" x1="21" x2="27" y1="1044.862" y2="1044.862" gradientTransform="translate(-16,4e-7)" gradientUnits="userSpaceOnUse" xlink:href="#linearGradient3803"/><linearGradient id="linearGradient3803"><stop style="stop-color:#a9e0ff;stop-opacity:1" id="stop3805" offset="0"/><stop style="stop-color:#6b9dff;stop-opacity:0" id="stop3807" offset="1"/></linearGradient><linearGradient id="linearGradient3172" x1="18" x2="30" y1="1038.862" y2="1038.862" gradientTransform="translate(-16,4e-7)" gradientUnits="userSpaceOnUse" xlink:href="#linearGradient3814"/><linearGradient id="linearGradient3552"><stop style="stop-color:#00f;stop-opacity:1" id="stop3554" offset="0"/><stop style="stop-color:#e9e9ff;stop-opacity:1" id="stop3556" offset="1"/></linearGradient><linearGradient id="linearGradient3561" x1="18" x2="30" y1="1050.862" y2="1050.862" gradientTransform="translate(-16,4e-7)" gradientUnits="userSpaceOnUse" xlink:href="#linearGradient3814"/></defs><metadata id="metadata3468"/><g id="layer1" transform="translate(0,-1036.3622)"><rect id="rect3112" width="11" height="2" x="2.5" y="1049.862" rx=".5" ry=".5" style="fill:url(#linearGradient3561);fill-opacity:1;stroke:#000;stroke-width:1;stroke-linecap:round;stroke-miterlimit:4;stroke-dasharray:none"/><rect style="fill:url(#linearGradient3172);fill-opacity:1;stroke:#000;stroke-width:1;stroke-linecap:round;stroke-miterlimit:4;stroke-dasharray:none" id="rect3114" width="11" height="2" x="2.5" y="1037.862" rx=".5" ry=".5"/><path id="path3116" d="m 3.5,1039.8622 c 0,3 1.5,4.5 3,5 -1.5,0.5 -3,2 -3,5 l 9,0 c 0,-3 -1.5,-4.5 -3,-5 1.5,-0.5 3,-2 3,-5 z" style="fill:url(#linearGradient3174);fill-opacity:1;stroke:#000;stroke-width:1px;stroke-linecap:butt;stroke-linejoin:miter;stroke-opacity:1"/></g></svg>