<svg xmlns="http://www.w3.org/2000/svg" xmlns:svg="http://www.w3.org/2000/svg" xmlns:xlink="http://www.w3.org/1999/xlink" id="svg2" width="128" height="128" version="1.1"><defs id="defs4"><radialGradient id="radialGradient3771-8" cx="31.315" cy="29.763" r="18.94" fx="31.315" fy="29.763" gradientUnits="userSpaceOnUse" xlink:href="#linearGradient3763-5"/><linearGradient id="linearGradient3763-5"><stop style="stop-color:red;stop-opacity:1" id="stop3765-8" offset="0"/><stop style="stop-color:#000;stop-opacity:0" id="stop3767-0" offset="1"/></linearGradient><radialGradient id="radialGradient3771-0" cx="31.315" cy="29.763" r="18.94" fx="31.315" fy="29.763" gradientUnits="userSpaceOnUse" xlink:href="#linearGradient3763-8"/><linearGradient id="linearGradient3763-8"><stop style="stop-color:#0f0;stop-opacity:1" id="stop3765-3" offset="0"/><stop style="stop-color:#000;stop-opacity:0" id="stop3767-05" offset="1"/></linearGradient><radialGradient id="radialGradient3771-05" cx="31.315" cy="29.763" r="18.94" fx="31.315" fy="29.763" gradientUnits="userSpaceOnUse" xlink:href="#linearGradient3763-3"/><linearGradient id="linearGradient3763-3"><stop style="stop-color:#000;stop-opacity:1" id="stop3765-4" offset="0"/><stop style="stop-color:#000;stop-opacity:0" id="stop3767-1" offset="1"/></linearGradient><radialGradient id="radialGradient3771-4" cx="31.315" cy="29.763" r="18.94" fx="31.315" fy="29.763" gradientUnits="userSpaceOnUse" xlink:href="#linearGradient3763-81"/><linearGradient id="linearGradient3763-81"><stop style="stop-color:#000;stop-opacity:1" id="stop3765-0" offset="0"/><stop style="stop-color:#000;stop-opacity:0" id="stop3767-4" offset="1"/></linearGradient><radialGradient id="radialGradient3771-42" cx="31.315" cy="29.763" r="18.94" fx="31.315" fy="29.763" gradientUnits="userSpaceOnUse" xlink:href="#linearGradient3763-56"/><linearGradient id="linearGradient3763-56"><stop style="stop-color:#000;stop-opacity:1" id="stop3765-5" offset="0"/><stop style="stop-color:#000;stop-opacity:0" id="stop3767-10" offset="1"/></linearGradient><radialGradient id="radialGradient3771-7" cx="31.315" cy="29.763" r="18.94" fx="31.315" fy="29.763" gradientUnits="userSpaceOnUse" xlink:href="#linearGradient3763-1"/><linearGradient id="linearGradient3763-1"><stop style="stop-color:#00f;stop-opacity:1" id="stop3765-04" offset="0"/><stop style="stop-color:#000;stop-opacity:0" id="stop3767-44" offset="1"/></linearGradient><radialGradient id="radialGradient3771-6" cx="31.315" cy="29.763" r="18.94" fx="31.315" fy="29.763" gradientUnits="userSpaceOnUse" xlink:href="#linearGradient3763-85"/><linearGradient id="linearGradient3763-85"><stop style="stop-color:#ff0;stop-opacity:1" id="stop3765-7" offset="0"/><stop style="stop-color:#000;stop-opacity:0" id="stop3767-7" offset="1"/></linearGradient><radialGradient id="radialGradient3771-47" cx="31.315" cy="29.763" r="18.94" fx="31.315" fy="29.763" gradientUnits="userSpaceOnUse" xlink:href="#linearGradient3763-4"/><linearGradient id="linearGradient3763-4"><stop style="stop-color:#0ff;stop-opacity:1" id="stop3765-59" offset="0"/><stop style="stop-color:#000;stop-opacity:0" id="stop3767-48" offset="1"/></linearGradient><radialGradient id="radialGradient4006-3" cx="31.315" cy="29.763" r="18.94" fx="31.315" fy="29.763" gradientUnits="userSpaceOnUse" xlink:href="#linearGradient3763-85-2"/><linearGradient id="linearGradient3763-85-2"><stop style="stop-color:#ff0;stop-opacity:1" id="stop3765-7-9" offset="0"/><stop style="stop-color:#000;stop-opacity:0" id="stop3767-7-8" offset="1"/></linearGradient><radialGradient id="radialGradient3822-7" cx="31.315" cy="29.763" r="18.94" fx="31.315" fy="29.763" gradientUnits="userSpaceOnUse" xlink:href="#linearGradient3763-8-0"/><linearGradient id="linearGradient3763-8-0"><stop style="stop-color:#0f0;stop-opacity:1" id="stop3765-3-5" offset="0"/><stop style="stop-color:#000;stop-opacity:0" id="stop3767-05-2" offset="1"/></linearGradient><radialGradient id="radialGradient3822-5" cx="31.315" cy="29.763" r="18.94" fx="31.315" fy="29.763" gradientUnits="userSpaceOnUse" xlink:href="#linearGradient3763-8-5"/><linearGradient id="linearGradient3763-8-5"><stop style="stop-color:#0f0;stop-opacity:1" id="stop3765-3-8" offset="0"/><stop style="stop-color:#000;stop-opacity:0" id="stop3767-05-7" offset="1"/></linearGradient><radialGradient id="radialGradient3966-7" cx="31.315" cy="29.763" r="18.94" fx="31.315" fy="29.763" gradientUnits="userSpaceOnUse" xlink:href="#linearGradient3763-1-7"/><linearGradient id="linearGradient3763-1-7"><stop style="stop-color:#00f;stop-opacity:1" id="stop3765-04-9" offset="0"/><stop style="stop-color:#000;stop-opacity:0" id="stop3767-44-9" offset="1"/></linearGradient><radialGradient id="radialGradient4046-5" cx="31.315" cy="29.763" r="18.94" fx="31.315" fy="29.763" gradientUnits="userSpaceOnUse" xlink:href="#linearGradient3763-4-5"/><linearGradient id="linearGradient3763-4-5"><stop style="stop-color:#0ff;stop-opacity:1" id="stop3765-59-7" offset="0"/><stop style="stop-color:#000;stop-opacity:0" id="stop3767-48-2" offset="1"/></linearGradient><filter id="filter4371" width="1.24" height="1.24" x="-.12" y="-.12"><feGaussianBlur id="feGaussianBlur4373" stdDeviation="1.149"/></filter><filter id="filter4375" width="1.24" height="1.24" x="-.12" y="-.12"><feGaussianBlur id="feGaussianBlur4377" stdDeviation="1.149"/></filter><filter id="filter4379" width="1.24" height="1.24" x="-.12" y="-.12"><feGaussianBlur id="feGaussianBlur4381" stdDeviation="1.149"/></filter><filter id="filter4387" width="1.24" height="1.24" x="-.12" y="-.12"><feGaussianBlur id="feGaussianBlur4389" stdDeviation="1.149"/></filter><filter id="filter4379-3" width="1.24" height="1.24" x="-.12" y="-.12" color-interpolation-filters="sRGB"><feGaussianBlur id="feGaussianBlur4381-8" stdDeviation="1.149"/></filter><filter id="filter4379-7" width="1.24" height="1.24" x="-.12" y="-.12" color-interpolation-filters="sRGB"><feGaussianBlur id="feGaussianBlur4381-84" stdDeviation="1.149"/></filter><filter id="filter4375-4" width="1.24" height="1.24" x="-.12" y="-.12" color-interpolation-filters="sRGB"><feGaussianBlur id="feGaussianBlur4377-7" stdDeviation="1.149"/></filter><filter id="filter4375-4-8" width="1.24" height="1.24" x="-.12" y="-.12" color-interpolation-filters="sRGB"><feGaussianBlur id="feGaussianBlur4377-7-9" stdDeviation="1.149"/></filter><filter id="filter4371-2" width="1.24" height="1.24" x="-.12" y="-.12" color-interpolation-filters="sRGB"><feGaussianBlur id="feGaussianBlur4373-9" stdDeviation="1.149"/></filter><filter id="filter4387-7" width="1.24" height="1.24" x="-.12" y="-.12" color-interpolation-filters="sRGB"><feGaussianBlur id="feGaussianBlur4389-6" stdDeviation="1.149"/></filter></defs><metadata id="metadata7"/><g id="layer1" transform="translate(0,-924.3622)"><path style="opacity:.65432099;fill:#0f0;fill-opacity:1;stroke:none;filter:url(#filter4371)" id="path4337" d="m 54.548236,25.848324 a 11.490485,11.490485 0 1 1 -22.98097,0 11.490485,11.490485 0 1 1 22.98097,0 z" transform="translate(-7.3236064,948.10078)"/><path transform="translate(19.319169,936.6103)" style="opacity:.65432098999999999;fill:#00c8c8;fill-opacity:1;stroke:none;filter:url(#filter4375)" id="path4337-4" d="m 54.548236,25.848324 a 11.490485,11.490485 0 1 1 -22.98097,0 11.490485,11.490485 0 1 1 22.98097,0 z"/><path transform="translate(39.522219,965.65218)" style="opacity:.65432098999999999;fill:#c8c800;fill-opacity:1;stroke:none;filter:url(#filter4387)" id="path4337-5" d="m 54.548236,25.848324 a 11.490485,11.490485 0 1 1 -22.98097,0 11.490485,11.490485 0 1 1 22.98097,0 z"/><path transform="translate(23.359778,994.9466)" style="opacity:.65432099;fill:red;fill-opacity:1;stroke:none;filter:url(#filter4379)" id="path4337-0" d="m 54.548236,25.848324 a 11.490485,11.490485 0 1 1 -22.98097,0 11.490485,11.490485 0 1 1 22.98097,0 z"/><path transform="translate(-13.25825,1002.5228)" style="opacity:.65432099;fill:red;fill-opacity:1;stroke:none;filter:url(#filter4379-3)" id="path4337-0-7" d="m 54.548236,25.848324 a 11.490485,11.490485 0 1 1 -22.98097,0 11.490485,11.490485 0 1 1 22.98097,0 z"/><path transform="translate(61.832233,1007.0759)" style="opacity:.65432099;fill:red;fill-opacity:1;stroke:none;filter:url(#filter4379-7)" id="path4337-0-1" d="m 54.548236,25.848324 a 11.490485,11.490485 0 1 1 -22.98097,0 11.490485,11.490485 0 1 1 22.98097,0 z"/><path transform="translate(46.088212,914.38695)" style="opacity:.65432099;fill:#00f;fill-opacity:1;stroke:none;filter:url(#filter4375-4)" id="path4337-4-7" d="m 54.548236,25.848324 a 11.490485,11.490485 0 1 1 -22.98097,0 11.490485,11.490485 0 1 1 22.98097,0 z"/><path transform="translate(-17.551399,919.94278)" style="opacity:.65432099;fill:#00f;fill-opacity:1;stroke:none;filter:url(#filter4375-4-8)" id="path4337-4-7-7" d="m 54.548236,25.848324 a 11.490485,11.490485 0 1 1 -22.98097,0 11.490485,11.490485 0 1 1 22.98097,0 z"/><path style="opacity:.65432099;fill:#0f0;fill-opacity:1;stroke:none;filter:url(#filter4371-2)" id="path4337-7" d="m 54.548236,25.848324 a 11.490485,11.490485 0 1 1 -22.98097,0 11.490485,11.490485 0 1 1 22.98097,0 z" transform="translate(63.513343,943.68137)"/><path transform="translate(-5.9346449,972.72327)" style="opacity:.65432098999999999;fill:#c8c800;fill-opacity:1;stroke:none;filter:url(#filter4387-7)" id="path4337-5-7" d="m 54.548236,25.848324 a 11.490485,11.490485 0 1 1 -22.98097,0 11.490485,11.490485 0 1 1 22.98097,0 z"/></g></svg>